<svg xmlns="http://www.w3.org/2000/svg" xmlns:xlink="http://www.w3.org/1999/xlink" width="270" height="270" viewBox="0 0 270 270">
  <defs>
    <filter id="長方形_19" x="0" y="0" width="270" height="270" filterUnits="userSpaceOnUse">
      <feOffset input="SourceAlpha"/>
      <feGaussianBlur stdDeviation="5" result="blur"/>
      <feFlood flood-opacity="0.212"/>
      <feComposite operator="in" in2="blur"/>
      <feComposite in="SourceGraphic"/>
    </filter>
  </defs>
  <g id="グループ_71" data-name="グループ 71" transform="translate(-913 -1911)">
    <g transform="matrix(1, 0, 0, 1, 913, 1911)" filter="url(#長方形_19)">
      <rect id="長方形_19-2" data-name="長方形 19" width="240" height="240" rx="20" transform="translate(15 15)" fill="#fff"/>
    </g>
    <g id="Calendar" transform="translate(1004.916 2010.916)">
      <path id="パス_49" data-name="パス 49" d="M77.244,10.208H70.4V7.472a5.472,5.472,0,0,0-10.945,0v2.736H48.514V7.472a5.472,5.472,0,0,0-10.945,0v2.736H26.625V7.472a5.472,5.472,0,0,0-10.945,0v2.736H8.84A6.84,6.84,0,0,0,2,17.049V71.772a6.84,6.84,0,0,0,6.84,6.84H47.146a1.368,1.368,0,1,0,0-2.736H8.84a4.117,4.117,0,0,1-4.1-4.1V29.361H81.348V52.619a1.368,1.368,0,0,0,2.736,0V17.049a6.84,6.84,0,0,0-6.84-6.84ZM62.2,7.472a2.736,2.736,0,0,1,5.472,0v8.208a2.736,2.736,0,0,1-5.472,0Zm-21.889,0a2.736,2.736,0,0,1,5.472,0v8.208a2.736,2.736,0,0,1-5.472,0Zm-21.889,0a2.736,2.736,0,0,1,5.472,0v8.208a2.736,2.736,0,0,1-5.472,0ZM81.348,26.625H4.736V17.049a4.117,4.117,0,0,1,4.1-4.1h6.84v2.736a5.472,5.472,0,1,0,10.945,0V12.945H37.57v2.736a5.472,5.472,0,0,0,10.945,0V12.945H59.459v2.736a5.472,5.472,0,0,0,10.945,0V12.945h6.84a4.117,4.117,0,0,1,4.1,4.1Z" transform="translate(0 0)"/>
      <path id="パス_50" data-name="パス 50" d="M32.945,29.736A2.736,2.736,0,0,0,30.208,27H24.736A2.736,2.736,0,0,0,22,29.736v4.1a2.736,2.736,0,0,0,2.736,2.736h5.472a2.736,2.736,0,0,0,2.736-2.736Zm-8.208,4.1v-4.1h5.472v4.1Z" transform="translate(7.361 9.202)"/>
      <path id="パス_51" data-name="パス 51" d="M20.945,29.736A2.736,2.736,0,0,0,18.208,27H12.736A2.736,2.736,0,0,0,10,29.736v4.1a2.736,2.736,0,0,0,2.736,2.736h5.472a2.736,2.736,0,0,0,2.736-2.736Zm-8.208,4.1v-4.1h5.472v4.1Z" transform="translate(2.945 9.202)"/>
      <path id="パス_52" data-name="パス 52" d="M54.208,36.576a2.736,2.736,0,0,0,2.736-2.736v-4.1A2.736,2.736,0,0,0,54.208,27H48.736A2.736,2.736,0,0,0,46,29.736v4.1a2.736,2.736,0,0,0,2.736,2.736Zm-5.472-6.84h5.472v4.1H48.736Z" transform="translate(16.195 9.202)"/>
      <path id="パス_53" data-name="パス 53" d="M32.945,38.736A2.736,2.736,0,0,0,30.208,36H24.736A2.736,2.736,0,0,0,22,38.736v4.1a2.736,2.736,0,0,0,2.736,2.736h5.472a2.736,2.736,0,0,0,2.736-2.736Zm-8.208,4.1v-4.1h5.472v4.1Z" transform="translate(7.361 12.514)"/>
      <path id="パス_54" data-name="パス 54" d="M20.945,38.736A2.736,2.736,0,0,0,18.208,36H12.736A2.736,2.736,0,0,0,10,38.736v4.1a2.736,2.736,0,0,0,2.736,2.736h5.472a2.736,2.736,0,0,0,2.736-2.736Zm-8.208,4.1v-4.1h5.472v4.1Z" transform="translate(2.945 12.514)"/>
      <path id="パス_55" data-name="パス 55" d="M30.208,45H24.736A2.736,2.736,0,0,0,22,47.736v4.1a2.736,2.736,0,0,0,2.736,2.736h5.472a2.736,2.736,0,0,0,2.736-2.736v-4.1A2.736,2.736,0,0,0,30.208,45Zm-5.472,6.84v-4.1h5.472v4.1Z" transform="translate(7.361 15.827)"/>
      <path id="パス_56" data-name="パス 56" d="M36.736,36.576h5.472a2.736,2.736,0,0,0,2.736-2.736v-4.1A2.736,2.736,0,0,0,42.208,27H36.736A2.736,2.736,0,0,0,34,29.736v4.1A2.736,2.736,0,0,0,36.736,36.576Zm0-6.84h5.472v4.1H36.736Z" transform="translate(11.778 9.202)"/>
      <path id="パス_57" data-name="パス 57" d="M34,42.84a2.736,2.736,0,0,0,2.736,2.736,1.368,1.368,0,0,0,0-2.736v-4.1h5.472a1.368,1.368,0,0,0,0-2.736H36.736A2.736,2.736,0,0,0,34,38.736Z" transform="translate(11.778 12.514)"/>
      <path id="パス_58" data-name="パス 58" d="M18.208,45H12.736A2.736,2.736,0,0,0,10,47.736v4.1a2.736,2.736,0,0,0,2.736,2.736h5.472a2.736,2.736,0,0,0,2.736-2.736v-4.1A2.736,2.736,0,0,0,18.208,45Zm-5.472,6.84v-4.1h5.472v4.1Z" transform="translate(2.945 15.827)"/>
      <path id="パス_59" data-name="パス 59" d="M53.785,36A17.785,17.785,0,1,0,71.57,53.785,17.785,17.785,0,0,0,53.785,36Zm0,32.834A15.049,15.049,0,1,1,68.834,53.785,15.049,15.049,0,0,1,53.785,68.834Z" transform="translate(12.514 12.514)"/>
      <path id="パス_60" data-name="パス 60" d="M59.57,44.916,48.929,55.557l-4.836-4.837a1.368,1.368,0,1,0-1.935,1.935l5.8,5.8a1.368,1.368,0,0,0,1.934,0L61.5,46.85a1.368,1.368,0,1,0-1.935-1.935Z" transform="translate(14.634 15.649)"/>
    </g>
  </g>
</svg>
