<svg xmlns="http://www.w3.org/2000/svg" xmlns:xlink="http://www.w3.org/1999/xlink" width="270" height="270" viewBox="0 0 270 270">
  <defs>
    <filter id="長方形_19" x="0" y="0" width="270" height="270" filterUnits="userSpaceOnUse">
      <feOffset input="SourceAlpha"/>
      <feGaussianBlur stdDeviation="5" result="blur"/>
      <feFlood flood-opacity="0.212"/>
      <feComposite operator="in" in2="blur"/>
      <feComposite in="SourceGraphic"/>
    </filter>
  </defs>
  <g id="グループ_70" data-name="グループ 70" transform="translate(-548 -1914)">
    <g transform="matrix(1, 0, 0, 1, 548, 1914)" filter="url(#長方形_19)">
      <rect id="長方形_19-2" data-name="長方形 19" width="240" height="240" rx="20" transform="translate(15 15)" fill="#fff"/>
    </g>
    <g id="グループ_49" data-name="グループ 49" transform="translate(640 2002.474)">
      <g id="グループ_48" data-name="グループ 48" transform="translate(0 0)">
        <path id="パス_44" data-name="パス 44" d="M108.285,17.729c1.395,1.289,2.5,2.308,2.5,4.984,0,5.76-5.326,9.2-5.379,9.235a1.162,1.162,0,0,0,1.238,1.967c.264-.166,6.466-4.138,6.466-11.2,0-3.693-1.723-5.286-3.243-6.691-1.437-1.329-2.679-2.477-2.679-5.571,0-6.172,4.022-8.155,4.186-8.232A1.162,1.162,0,0,0,110.4.106c-.226.1-5.542,2.629-5.542,10.346A8.684,8.684,0,0,0,108.285,17.729Z" transform="translate(-82.445 0)"/>
        <path id="パス_45" data-name="パス 45" d="M244.76,17.729c1.395,1.289,2.5,2.308,2.5,4.984,0,5.76-5.326,9.2-5.379,9.235a1.162,1.162,0,0,0,1.238,1.967c.264-.166,6.466-4.138,6.466-11.2,0-3.693-1.723-5.286-3.243-6.691-1.437-1.329-2.679-2.477-2.679-5.571,0-6.172,4.022-8.155,4.186-8.232a1.162,1.162,0,0,0-.968-2.113c-.226.1-5.542,2.629-5.542,10.346A8.684,8.684,0,0,0,244.76,17.729Z" transform="translate(-187.196 0)"/>
        <path id="パス_46" data-name="パス 46" d="M176.523,17.729c1.395,1.289,2.5,2.308,2.5,4.984,0,5.76-5.326,9.2-5.379,9.235a1.162,1.162,0,0,0,1.238,1.967c.264-.166,6.466-4.138,6.466-11.2,0-3.693-1.723-5.286-3.243-6.691-1.437-1.329-2.679-2.477-2.679-5.571,0-6.172,4.022-8.155,4.186-8.232A1.162,1.162,0,0,0,178.64.106c-.226.1-5.542,2.629-5.542,10.346A8.684,8.684,0,0,0,176.523,17.729Z" transform="translate(-134.821 0)"/>
        <path id="パス_47" data-name="パス 47" d="M35.267,211.1a34.4,34.4,0,0,0,6.753,12.846,30.207,30.207,0,0,0,10.2,8.13,1.162,1.162,0,1,0,.9-2.145,28.259,28.259,0,0,1-9.326-7.491,32.631,32.631,0,0,1-6.265-11.888,1.162,1.162,0,0,0-2.259.547Z" transform="translate(-29.004 -160.93)"/>
        <path id="パス_48" data-name="パス 48" d="M92.935,187.055a1.163,1.163,0,0,0-.864-.385H9.6a1.162,1.162,0,0,0-1.156,1.284,42.569,42.569,0,0,0,21.619,32.713q-.006.1-.006.207v7.63A3.5,3.5,0,0,0,33.547,232H67.671a3.5,3.5,0,0,0,3.493-3.494V220.91a42.507,42.507,0,0,0,22.063-32.956A1.162,1.162,0,0,0,92.935,187.055ZM68.84,228.5a1.171,1.171,0,0,1-1.169,1.169H33.547a1.17,1.17,0,0,1-1.169-1.169v-7.286H68.84ZM70,218.9c-.027,0-.055,0-.083,0H31.659a40.251,40.251,0,0,1-20.749-29.9H90.76A40.192,40.192,0,0,1,70,218.9Z" transform="translate(-8.435 -143.278)"/>
      </g>
    </g>
  </g>
</svg>
